<svg width="130" height="130" viewBox="0 0 130 130" fill="none" xmlns="http://www.w3.org/2000/svg">
<circle cx="65" cy="65" r="65" fill="#1B1B1B"/>
<path d="M64.5192 64.5383C73.6468 64.5383 81.087 56.4109 81.087 46.52C81.087 36.7057 73.6852 29 64.5192 29C55.4299 29 47.9513 36.8591 47.9513 46.5967C47.9897 56.4492 55.3915 64.5383 64.5192 64.5383ZM64.5192 58.7495C58.9199 58.7495 54.1259 53.3823 54.1259 46.5967C54.1259 39.926 58.8432 34.7889 64.5192 34.7889C70.2335 34.7889 74.9124 39.8494 74.9124 46.52C74.9124 53.3056 70.1568 58.7495 64.5192 58.7495ZM40.3961 100H88.6039C94.9702 100 98 98.0832 98 93.8661C98 83.8218 85.3057 69.2921 64.5192 69.2921C43.6943 69.2921 31 83.8218 31 93.8661C31 98.0832 34.0298 100 40.3961 100ZM38.5936 94.2111C37.5965 94.2111 37.1746 93.9428 37.1746 93.1377C37.1746 86.8504 46.9159 75.081 64.5192 75.081C82.0841 75.081 91.8254 86.8504 91.8254 93.1377C91.8254 93.9428 91.4419 94.2111 90.4448 94.2111H38.5936Z" fill="white"/>
</svg>
