<svg width="29" height="30" viewBox="0 0 29 30" fill="none" xmlns="http://www.w3.org/2000/svg">
<path d="M14.1577 15.0162C18.013 15.0162 21.1555 11.5821 21.1555 7.40281C21.1555 3.25594 18.0292 0 14.1577 0C10.3186 0 7.15983 3.32073 7.15983 7.43521C7.17603 11.5983 10.3024 15.0162 14.1577 15.0162ZM14.1577 12.5702C11.7927 12.5702 9.76782 10.3024 9.76782 7.43521C9.76782 4.61663 11.7603 2.446 14.1577 2.446C16.5713 2.446 18.5475 4.58423 18.5475 7.40281C18.5475 10.27 16.5389 12.5702 14.1577 12.5702ZM3.96868 30H24.3305C27.0194 30 28.2991 29.1901 28.2991 27.4082C28.2991 23.1641 22.9374 17.0248 14.1577 17.0248C5.36177 17.0248 0 23.1641 0 27.4082C0 29.1901 1.2797 30 3.96868 30ZM3.20734 27.554C2.78618 27.554 2.60799 27.4406 2.60799 27.1004C2.60799 24.4438 6.72246 19.4708 14.1577 19.4708C21.5767 19.4708 25.6911 24.4438 25.6911 27.1004C25.6911 27.4406 25.5292 27.554 25.108 27.554H3.20734Z" fill="white"/>
</svg>
