<svg width="27" height="21" viewBox="0 0 27 21" fill="none" xmlns="http://www.w3.org/2000/svg">
<path d="M3.54791 20.1418H23.0049C25.3777 20.1418 26.5528 18.978 26.5528 16.6504V4.34573C26.5528 2.01812 25.3777 0.843018 23.0049 0.843018H3.54791C1.1864 0.843018 0 2.01812 0 4.34573V16.6504C0 18.978 1.1864 20.1418 3.54791 20.1418ZM1.81915 4.44742C1.81915 3.27232 2.4406 2.66217 3.57051 2.66217H22.9823C24.0896 2.66217 24.7337 3.27232 24.7337 4.44742V5.34005H1.81915V4.44742ZM3.57051 18.3227C2.4406 18.3227 1.81915 17.7238 1.81915 16.5487V7.90494H24.7337V16.5487C24.7337 17.7238 24.0896 18.3227 22.9823 18.3227H3.57051ZM5.07328 16.1872H7.84155C8.5082 16.1872 8.94886 15.7352 8.94886 15.1024V13.0121C8.94886 12.3681 8.5082 11.9274 7.84155 11.9274H5.07328C4.40664 11.9274 3.96597 12.3681 3.96597 13.0121V15.1024C3.96597 15.7352 4.40664 16.1872 5.07328 16.1872Z" fill="white"/>
</svg>
