<svg width="41" height="30" viewBox="0 0 41 30" fill="none" xmlns="http://www.w3.org/2000/svg">
<path d="M5.36621 29.1895H34.7949C38.3838 29.1895 40.1611 27.4292 40.1611 23.9087V5.29785C40.1611 1.77734 38.3838 0 34.7949 0H5.36621C1.79443 0 0 1.77734 0 5.29785V23.9087C0 27.4292 1.79443 29.1895 5.36621 29.1895ZM2.75146 5.45166C2.75146 3.67432 3.69141 2.75146 5.40039 2.75146H34.7607C36.4355 2.75146 37.4097 3.67432 37.4097 5.45166V6.80176H2.75146V5.45166ZM5.40039 26.438C3.69141 26.438 2.75146 25.5322 2.75146 23.7549V10.6812H37.4097V23.7549C37.4097 25.5322 36.4355 26.438 34.7607 26.438H5.40039ZM7.67334 23.208H11.8604C12.8687 23.208 13.5352 22.5244 13.5352 21.5674V18.4058C13.5352 17.4316 12.8687 16.7651 11.8604 16.7651H7.67334C6.66504 16.7651 5.99854 17.4316 5.99854 18.4058V21.5674C5.99854 22.5244 6.66504 23.208 7.67334 23.208Z" fill="white"/>
</svg>
