<svg width="46" height="80" viewBox="0 0 46 80" fill="none" xmlns="http://www.w3.org/2000/svg">
<path d="M0 21.1775C0 34.379 7.90718 37.645 10.1074 60.5758C10.245 61.8135 10.9325 62.6042 12.2389 62.6042H33.7602C35.101 62.6042 35.7886 61.8135 35.9261 60.5758C38.1263 37.645 45.9991 34.379 45.9991 21.1775C45.9991 9.31672 35.8573 0 22.9996 0C10.1418 0 0 9.31672 0 21.1775ZM5.19123 21.1775C5.19123 11.8951 13.3391 5.19123 22.9996 5.19123C32.6601 5.19123 40.8079 11.8951 40.8079 21.1775C40.8079 31.0443 34.2759 33.382 31.1818 57.413H14.8517C11.7232 33.382 5.19123 31.0443 5.19123 21.1775ZM12.1358 70.0301H33.8977C35.0322 70.0301 35.8917 69.1362 35.8917 68.0017C35.8917 66.9016 35.0322 66.0077 33.8977 66.0077H12.1358C11.0013 66.0077 10.1074 66.9016 10.1074 68.0017C10.1074 69.1362 11.0013 70.0301 12.1358 70.0301ZM22.9996 80C28.3283 80 32.7632 77.3872 33.107 73.4336H12.9265C13.1672 77.3872 17.6364 80 22.9996 80Z" fill="white"/>
</svg>
