<svg width="36" height="30" viewBox="0 0 36 30" fill="none" xmlns="http://www.w3.org/2000/svg">
<path d="M12.4059 22.5839H30.2136C30.8088 22.5839 31.3276 22.0956 31.3276 21.4395C31.3276 20.7833 30.8088 20.295 30.2136 20.295H12.6653C11.7955 20.295 11.2614 19.6846 11.1241 18.7538L10.88 17.1516H30.2442C32.472 17.1516 33.6165 15.7782 33.9369 13.5961L35.1577 5.52391C35.1882 5.32553 35.2187 5.08138 35.2187 4.94405C35.2187 4.2116 34.6694 3.70804 33.8301 3.70804H8.9115L8.62157 1.77009C8.46897 0.595117 8.04171 0 6.48525 0H1.1292C0.51882 0 0 0.534079 0 1.14446C0 1.77009 0.51882 2.30417 1.1292 2.30417H6.28688L8.72838 19.059C9.04883 21.2258 10.1933 22.5839 12.4059 22.5839ZM32.6246 6.01221L31.5412 13.3215C31.4191 14.2675 30.9156 14.8627 30.0153 14.8627H10.5443L9.2472 6.01221H32.6246ZM13.6114 30C14.9847 30 16.0834 28.9166 16.0834 27.528C16.0834 26.1546 14.9847 25.056 13.6114 25.056C12.2228 25.056 11.1241 26.1546 11.1241 27.528C11.1241 28.9166 12.2228 30 13.6114 30ZM27.8789 30C29.2675 30 30.3662 28.9166 30.3662 27.528C30.3662 26.1546 29.2675 25.056 27.8789 25.056C26.5056 25.056 25.3917 26.1546 25.3917 27.528C25.3917 28.9166 26.5056 30 27.8789 30Z" fill="white"/>
</svg>
