<svg width="30" height="30" viewBox="0 0 30 30" fill="none" xmlns="http://www.w3.org/2000/svg">
<path d="M15 30C23.2059 30 30 23.1912 30 15C30 6.79412 23.1912 0 14.9853 0C6.79412 0 0 6.79412 0 15C0 23.1912 6.80882 30 15 30ZM15 27.5C8.05882 27.5 2.51471 21.9412 2.51471 15C2.51471 8.05882 8.04412 2.5 14.9853 2.5C21.9265 2.5 27.5 8.05882 27.5 15C27.5 21.9412 21.9412 27.5 15 27.5ZM20.8088 10.8824L21.8676 9.80882C22.3382 9.30882 22.3824 8.77941 21.9412 8.33824L21.6029 8C21.1618 7.55882 20.6176 7.60294 20.1471 8.07353L19.0735 9.13235L20.8088 10.8824ZM10.2794 21.3676L19.9265 11.75L18.1912 10.0147L8.55882 19.6176L7.72059 21.5735C7.57353 21.9412 7.92647 22.25 8.25 22.1324L10.2794 21.3676Z" fill="white"/>
</svg>
