<svg width="26" height="30" viewBox="0 0 26 30" fill="none" xmlns="http://www.w3.org/2000/svg">
<path d="M7.84153 5.15027C7.84153 7.55464 9.46721 9.56284 11.694 10.123V18.7705C11.694 22.8005 12.418 25 12.9645 25C13.5246 25 14.235 22.8142 14.235 18.7705V10.123C16.4617 9.5765 18.1011 7.55464 18.1011 5.15027C18.1011 2.3224 15.8197 0 12.9645 0C10.123 0 7.84153 2.3224 7.84153 5.15027ZM11.5027 5.43716C10.5738 5.43716 9.7541 4.61749 9.7541 3.6612C9.7541 2.71858 10.5738 1.91257 11.5027 1.91257C12.4727 1.91257 13.265 2.71858 13.265 3.6612C13.265 4.61749 12.4727 5.43716 11.5027 5.43716ZM12.9781 30C21.2158 30 25.9426 27.1585 25.9426 24.153C25.9426 20.5464 20.2186 18.347 16.4617 18.306V20.3005C19.0984 20.3415 23.1831 21.776 23.1831 23.8251C23.1831 26.1749 18.8525 27.8415 12.9781 27.8415C7.0765 27.8415 2.77322 26.2022 2.77322 23.8251C2.77322 21.776 6.84426 20.3415 9.48087 20.3005V18.306C5.72404 18.347 0 20.5464 0 24.153C0 27.1585 4.74044 30 12.9781 30Z" fill="white"/>
</svg>
