<svg width="13" height="20" viewBox="0 0 13 20" fill="none" xmlns="http://www.w3.org/2000/svg">
<path d="M1.7727 20H10.9734C12.0718 20 12.7461 19.3801 12.7461 18.2164V17.9989C12.7461 15.3779 9.97281 12.5938 8.45024 11.0821C7.71071 10.3426 7.76509 9.5813 8.45024 8.89614C9.97281 7.39532 12.7461 4.62208 12.7461 1.97934V1.79445C12.7461 0.630778 12.0718 0 10.9734 0H1.7727C0.674279 0 0 0.630778 0 1.79445V1.97934C0 4.62208 2.78412 7.39532 4.29581 8.89614C4.99184 9.5813 5.04622 10.3426 4.29581 11.0821C2.78412 12.5938 0 15.3779 0 17.9989V18.2164C0 19.3801 0.674279 20 1.7727 20ZM2.61011 18.5209C2.14247 18.5209 2.03371 17.9772 2.3491 17.6835L5.81838 14.3774C5.94888 14.2577 6.00326 14.2034 6.00326 14.0294V9.21153C6.00326 8.71126 5.90538 8.46112 5.53562 8.14573C4.80696 7.52583 3.78467 6.63404 3.11039 5.92713C2.82762 5.64437 2.97988 5.29636 3.31702 5.29636H9.42904C9.76618 5.29636 9.91843 5.64437 9.63567 5.92713C8.97227 6.63404 7.94997 7.52583 7.21044 8.14573C6.84067 8.46112 6.75367 8.71126 6.75367 9.21153V14.0294C6.75367 14.2034 6.79717 14.2577 6.92768 14.3774L10.397 17.6835C10.7123 17.9772 10.6036 18.5209 10.1359 18.5209H2.61011Z" fill="white"/>
</svg>
