<svg width="20" height="20" viewBox="0 0 20 20" fill="none" xmlns="http://www.w3.org/2000/svg">
<path d="M3.41119 20H16.5888C18.8702 20 20 18.8702 20 16.6323V3.36773C20 1.12982 18.8702 0 16.5888 0H3.41119C1.14068 0 0 1.11896 0 3.36773V16.6323C0 18.881 1.14068 20 3.41119 20ZM3.43292 18.251C2.34655 18.251 1.74905 17.6752 1.74905 16.5454V3.45464C1.74905 2.32482 2.34655 1.74905 3.43292 1.74905H16.5671C17.6426 1.74905 18.251 2.32482 18.251 3.45464V16.5454C18.251 17.6752 17.6426 18.251 16.5671 18.251H3.43292ZM8.82129 15.1439C9.17979 15.1439 9.48398 14.9701 9.70125 14.6334L14.6659 6.82238C14.7963 6.60511 14.9267 6.36611 14.9267 6.1271C14.9267 5.63824 14.4921 5.32319 14.0467 5.32319C13.7643 5.32319 13.4927 5.49701 13.2863 5.81206L8.77784 13.0473L6.6377 10.277C6.37697 9.92939 6.13797 9.84248 5.84465 9.84248C5.36665 9.84248 4.99728 10.2227 4.99728 10.7007C4.99728 10.9397 5.09506 11.1678 5.24715 11.3743L7.89788 14.6334C8.16947 14.9919 8.46279 15.1439 8.82129 15.1439Z" fill="white"/>
</svg>
