<svg width="33" height="42" viewBox="0 0 33 42" fill="none" xmlns="http://www.w3.org/2000/svg">
<path d="M6.05469 41.875H26.7969C30.8398 41.875 32.8516 39.8242 32.8516 35.7617V18.0273C32.8516 15.5078 32.5586 14.4141 30.9961 12.8125L20.2344 1.85547C18.75 0.332031 17.5195 0 15.332 0H6.05469C2.03125 0 0 2.07031 0 6.13281V35.7617C0 39.8438 2.01172 41.875 6.05469 41.875ZM6.19141 38.7305C4.17969 38.7305 3.14453 37.6562 3.14453 35.7031V6.19141C3.14453 4.25781 4.17969 3.14453 6.21094 3.14453H14.9023V14.4922C14.9023 16.9531 16.1328 18.1641 18.5742 18.1641H29.707V35.7031C29.707 37.6562 28.6719 38.7305 26.6406 38.7305H6.19141ZM18.9258 15.2148C18.1445 15.2148 17.8516 14.9023 17.8516 14.1211V3.75L29.1016 15.2148H18.9258ZM23.6133 23.5547H8.78906C8.08594 23.5547 7.55859 24.082 7.55859 24.7461C7.55859 25.4297 8.08594 25.957 8.78906 25.957H23.6133C24.2969 25.957 24.8047 25.4297 24.8047 24.7461C24.8047 24.082 24.2969 23.5547 23.6133 23.5547ZM23.6133 30.3711H8.78906C8.08594 30.3711 7.55859 30.918 7.55859 31.6016C7.55859 32.2656 8.08594 32.7734 8.78906 32.7734H23.6133C24.2969 32.7734 24.8047 32.2656 24.8047 31.6016C24.8047 30.918 24.2969 30.3711 23.6133 30.3711Z" fill="white"/>
</svg>
