<svg width="84" height="80" viewBox="0 0 84 80" fill="none" xmlns="http://www.w3.org/2000/svg">
<path d="M11.0678 68.9694H14.9675V72.9062C14.9675 77.8459 17.3445 80 22.0613 80H61.8384C66.5552 80 68.9322 77.8459 68.9322 72.9062V68.9694H72.8691C80.0743 68.9694 83.8997 65.3296 83.8997 58.0873V23.324C83.8997 16.1188 80.0743 12.442 72.8691 12.442H69.1922V10.4735C69.1922 3.2312 65.5896 0 58.6815 0H25.2182C18.6815 0 14.7075 3.2312 14.7075 10.4735V12.442H11.0678C4.19684 12.442 0 16.1188 0 23.324V58.0873C0 65.3296 3.82544 68.9694 11.0678 68.9694ZM20.4643 10.065C20.4643 6.94522 22.0613 5.42247 25.1439 5.42247H58.7558C61.8756 5.42247 63.4355 6.94522 63.4355 10.065V12.442H20.4643V10.065ZM61.8384 35.506H22.0613C17.5673 35.506 14.9675 37.6602 14.9675 42.5998V63.3612H10.9935C7.68802 63.3612 6.01671 61.6527 6.01671 58.3844V23.0269C6.01671 19.7586 7.68802 18.0501 10.9935 18.0501H72.9434C76.2117 18.0501 77.9202 19.7586 77.9202 23.0269V58.3844C77.9202 61.6527 76.2117 63.3612 72.9434 63.3612H68.9322V42.5998C68.9322 37.6602 66.5552 35.506 61.8384 35.506ZM59.9443 26.8524C59.9443 29.4522 62.0984 31.4949 64.624 31.4949C67.1123 31.4949 69.2293 29.4522 69.2293 26.8524C69.2293 24.4011 67.1123 22.247 64.624 22.247C62.0984 22.247 59.9443 24.4011 59.9443 26.8524ZM23.9183 74.3918C21.9499 74.3918 20.9471 73.4262 20.9471 71.4206V44.0483C20.9471 42.0427 21.9499 41.1142 23.9183 41.1142H60.0186C62.0241 41.1142 62.9526 42.0427 62.9526 44.0483V71.4206C62.9526 73.4262 62.0241 74.3918 60.0186 74.3918H23.9183ZM29.0808 53.5562H54.9304C56.2303 53.5562 57.1959 52.5534 57.1959 51.2163C57.1959 49.9536 56.2303 48.9879 54.9304 48.9879H29.0808C27.7437 48.9879 26.7409 49.9536 26.7409 51.2163C26.7409 52.5534 27.7437 53.5562 29.0808 53.5562ZM29.0808 66.5181H54.9304C56.2303 66.5181 57.1959 65.5153 57.1959 64.2526C57.1959 62.9526 56.2303 61.9499 54.9304 61.9499H29.0808C27.7437 61.9499 26.7409 62.9526 26.7409 64.2526C26.7409 65.5153 27.7437 66.5181 29.0808 66.5181Z" fill="white"/>
</svg>
