<svg width="41" height="39" viewBox="0 0 41 39" fill="none" xmlns="http://www.w3.org/2000/svg">
<path d="M2.20703 37.7734C2.69531 37.7734 3.20312 37.5977 3.82812 37.2461L13.7695 31.8945L24.5703 37.9492C25.2734 38.3398 26.0352 38.5352 26.7578 38.5352C27.4414 38.5352 28.125 38.3594 28.7109 38.0273L38.9258 32.2266C40.0977 31.582 40.625 30.6445 40.625 29.3359V3.02734C40.625 1.58203 39.8242 0.78125 38.418 0.78125C37.9297 0.78125 37.4219 0.9375 36.7773 1.28906L26.4258 7.05078L15.8203 0.546875C15.2148 0.195312 14.5312 0 13.8477 0C13.1445 0 12.4414 0.195312 11.8359 0.546875L1.67969 6.32812C0.527344 6.99219 0 7.92969 0 9.23828V35.5078C0 36.9531 0.800781 37.7734 2.20703 37.7734ZM12.5 28.7891L3.69141 33.6328C3.59375 33.6719 3.49609 33.7305 3.39844 33.7305C3.24219 33.7305 3.14453 33.6133 3.14453 33.418V10C3.14453 9.53125 3.32031 9.19922 3.78906 8.92578L11.7969 4.23828C12.0508 4.10156 12.2656 3.98438 12.5 3.84766V28.7891ZM15.6445 29.1016V4.25781C15.8398 4.375 16.0742 4.49219 16.2695 4.60938L24.9805 9.92188V34.3359C24.707 34.1797 24.4141 34.043 24.1211 33.8867L15.6445 29.1016ZM28.125 34.6875V9.72656L36.9336 4.92188C37.0312 4.86328 37.1289 4.82422 37.207 4.82422C37.3828 4.82422 37.4805 4.94141 37.4805 5.13672V28.5547C37.4805 29.043 37.2852 29.375 36.8359 29.6484L29.0039 34.1992C28.7109 34.375 28.418 34.5508 28.125 34.6875Z" fill="white"/>
</svg>
