<svg width="81" height="80" viewBox="0 0 81 80" fill="none" xmlns="http://www.w3.org/2000/svg">
<path d="M3.27031 25.999C5.43689 25.999 6.5815 24.7726 6.5815 22.6469V12.9995C6.5815 8.74808 8.82984 6.5815 12.9177 6.5815H22.8104C24.977 6.5815 26.1625 5.39601 26.1625 3.27031C26.1625 1.14461 24.977 0 22.8104 0H12.836C4.29228 0 0 4.21053 0 12.6316V22.6469C0 24.7726 1.18549 25.999 3.27031 25.999ZM76.7297 25.999C78.8963 25.999 80.0409 24.7726 80.0409 22.6469V12.6316C80.0409 4.21053 75.7486 0 67.2049 0H57.1896C55.0639 0 53.8784 1.14461 53.8784 3.27031C53.8784 5.39601 55.0639 6.5815 57.1896 6.5815H67.0823C71.1293 6.5815 73.4594 8.74808 73.4594 12.9995V22.6469C73.4594 24.7726 74.6449 25.999 76.7297 25.999ZM28.7787 65.2427H53.1017C58.2524 65.2427 60.9504 62.463 60.9504 57.2713V36.5049C60.9504 33.2345 60.4599 31.8038 58.5795 29.8825L45.9479 17.0056C44.1901 15.2478 42.5549 14.6346 39.6525 14.6346H28.7787C23.6689 14.6346 20.93 17.4144 20.93 22.5652V57.2713C20.93 62.463 23.6689 65.2427 28.7787 65.2427ZM28.9423 60.0511C26.9801 60.0511 26.0807 59.1109 26.0807 57.2305V22.6469C26.0807 20.7665 27.021 19.8263 28.9831 19.8263H38.3853V32.3761C38.3853 35.6055 40.184 37.4042 43.4543 37.4042H55.7997V57.2305C55.7997 59.1109 54.9004 60.0511 52.8973 60.0511H28.9423ZM44.0266 32.4578C43.536 32.4578 43.3316 32.2943 43.3316 31.8038V21.5841L54.001 32.4578H44.0266ZM12.836 80H22.8104C24.977 80 26.1625 78.8145 26.1625 76.7297C26.1625 74.604 24.977 73.4185 22.8104 73.4185H12.9177C8.82984 73.4185 6.5815 71.2519 6.5815 67.0005V57.3531C6.5815 55.1865 5.39601 54.001 3.27031 54.001C1.14461 54.001 0 55.1865 0 57.3531V67.3275C0 75.7895 4.29228 80 12.836 80ZM57.1896 80H67.2049C75.7486 80 80.0409 75.7486 80.0409 67.3275V57.3531C80.0409 55.1865 78.8554 54.001 76.7297 54.001C74.604 54.001 73.4594 55.1865 73.4594 57.3531V67.0005C73.4594 71.2519 71.1293 73.4185 67.0823 73.4185H57.1896C55.0639 73.4185 53.8784 74.604 53.8784 76.7297C53.8784 78.8145 55.0639 80 57.1896 80Z" fill="white"/>
</svg>
