<svg width="30" height="30" viewBox="0 0 30 30" fill="none" xmlns="http://www.w3.org/2000/svg">
<path d="M0 12.1338C0 18.8241 5.44349 24.2676 12.1338 24.2676C14.7795 24.2676 17.1972 23.4161 19.1891 21.9868L26.67 29.483C27.0198 29.8327 27.4759 30 27.9625 30C28.9965 30 29.7111 29.2245 29.7111 28.2058C29.7111 27.7192 29.5286 27.2783 29.2093 26.9589L21.7739 19.478C23.3401 17.4404 24.2676 14.9012 24.2676 12.1338C24.2676 5.44349 18.8241 0 12.1338 0C5.44349 0 0 5.44349 0 12.1338ZM2.6001 12.1338C2.6001 6.87278 6.87278 2.6001 12.1338 2.6001C17.3948 2.6001 21.6675 6.87278 21.6675 12.1338C21.6675 17.3948 17.3948 21.6675 12.1338 21.6675C6.87278 21.6675 2.6001 17.3948 2.6001 12.1338Z" fill="white"/>
</svg>
