<svg width="51" height="62" viewBox="0 0 51 62" fill="none" xmlns="http://www.w3.org/2000/svg">
<path d="M0 52.5969C0 58.8757 2.97993 62 8.91141 62H42.315C47.3951 62 50.375 58.8454 50.375 52.5969V21.2025C50.375 14.954 47.3667 11.7994 41.4636 11.7994H36.9227C36.7808 5.42955 31.5873 0 25.1733 0C18.7594 0 13.5942 5.42955 13.4239 11.7994H8.91141C2.97993 11.7994 0 14.9237 0 21.2025V52.5969ZM17.9931 11.7994C18.135 7.85616 21.1717 4.61057 25.1733 4.61057C29.1749 4.61057 32.24 7.85616 32.3535 11.7994H17.9931ZM4.56923 52.3542V21.4452C4.56923 18.2906 6.13014 16.683 8.96817 16.683H41.3784C44.1881 16.683 45.8058 18.2906 45.8058 21.4452V52.3542C45.8058 55.5088 44.1881 57.1164 42.2299 57.1164H8.96817C6.13014 57.1164 4.56923 55.5088 4.56923 52.3542Z" fill="white"/>
</svg>
