<svg width="40" height="40" viewBox="0 0 40 40" fill="none" xmlns="http://www.w3.org/2000/svg">
<path d="M33.8351 6.97133H30.9677C30.8781 3.20789 27.5986 0 23.5484 0C19.4982 0 16.2186 3.20789 16.129 6.97133H13.2796C9.53405 6.97133 7.65233 8.8172 7.65233 12.5269V19.4265C8.1362 19.3728 8.62007 19.3369 9.08602 19.3369C9.56989 19.3369 10.0538 19.3728 10.5376 19.4265V12.6703C10.5376 10.8065 11.5233 9.85663 13.3154 9.85663H33.7814C35.5556 9.85663 36.5771 10.8065 36.5771 12.6703V30.9319C36.5771 32.7957 35.5556 33.7455 34.319 33.7455H20.2509C20.0179 34.767 19.6237 35.7348 19.1039 36.6308H34.3728C37.5806 36.6308 39.4624 34.767 39.4624 31.0753V12.5269C39.4624 8.83512 37.5627 6.97133 33.8351 6.97133ZM23.5484 2.72401C26.0753 2.72401 27.9928 4.62366 28.0824 6.97133H19.0143C19.1039 4.62366 21.0215 2.72401 23.5484 2.72401ZM9.10394 40C14.0323 40 18.2079 35.8602 18.2079 30.8781C18.2079 25.8961 14.1039 21.7742 9.10394 21.7742C4.10394 21.7742 0 25.8961 0 30.8781C0 35.8961 4.10394 40 9.10394 40ZM9.10394 36.595C8.44086 36.595 8.01075 36.147 8.01075 35.4839V31.9892H4.49821C3.85305 31.9892 3.40502 31.5591 3.40502 30.8781C3.40502 30.2151 3.85305 29.7849 4.49821 29.7849H8.01075V26.2903C8.01075 25.6272 8.44086 25.1971 9.10394 25.1971C9.76702 25.1971 10.1971 25.6272 10.1971 26.2903V29.7849H13.6918C14.3548 29.7849 14.8029 30.2151 14.8029 30.8781C14.8029 31.5591 14.3548 31.9892 13.6918 31.9892H10.1971V35.4839C10.1971 36.147 9.76702 36.595 9.10394 36.595Z" fill="white"/>
</svg>
